<?xml version="1.0" encoding="UTF-8" standalone="no"?>
<svg version="1.1" id="Layer_1" xmlns="http://www.w3.org/2000/svg" xmlns:xlink="http://www.w3.org/1999/xlink" x="0px" y="0px" viewBox="0 0 442.73 126.06" style="enable-background:new 0 0 442.73 126.06;" xml:space="preserve">
<g>
<g>
<g>
<path class="st0" d="M187.17,110.7h-2.21V81.42h-10.18v-2.06h22.57v2.06h-10.18V110.7z"></path>
<path class="st0" d="M211.31,111.13c-3.39,0-6.03-1.04-7.92-3.13s-2.84-5.01-2.84-8.77c0-3.72,0.91-6.69,2.74-8.93
s4.29-3.35,7.4-3.35c2.74,0,4.91,0.96,6.5,2.87s2.38,4.52,2.38,7.8v1.71h-16.78c0.03,3.2,0.77,5.65,2.24,7.33
s3.56,2.53,6.29,2.53c1.33,0,2.5-0.09,3.5-0.28c1.01-0.19,2.28-0.59,3.83-1.2v1.93c-1.31,0.57-2.53,0.96-3.64,1.17
C213.88,111.03,212.66,111.13,211.31,111.13z M210.69,88.84c-2.24,0-4.04,0.74-5.4,2.22c-1.36,1.48-2.15,3.61-2.38,6.4h14.4
c0-2.7-0.59-4.81-1.76-6.33C214.38,89.6,212.76,88.84,210.69,88.84z"></path>
<path class="st0" d="M235.74,111.13c-3.33,0-5.94-1.05-7.82-3.15c-1.89-2.1-2.83-5.03-2.83-8.79c0-3.86,0.98-6.86,2.94-9.01
c1.96-2.15,4.64-3.23,8.04-3.23c2.02,0,3.94,0.35,5.79,1.05l-0.58,1.89c-2.02-0.67-3.77-1.01-5.25-1.01
c-2.86,0-5.02,0.88-6.49,2.65c-1.47,1.77-2.21,4.31-2.21,7.62c0,3.14,0.74,5.61,2.21,7.38c1.47,1.78,3.53,2.67,6.17,2.67
c2.11,0,4.08-0.38,5.9-1.14v1.97C240.1,110.77,238.15,111.13,235.74,111.13z"></path>
<path class="st0" d="M263.98,110.7V95.59c0-2.34-0.49-4.05-1.48-5.11c-0.99-1.06-2.52-1.6-4.59-1.6c-2.79,0-4.83,0.7-6.12,2.11
c-1.29,1.41-1.94,3.69-1.94,6.85v12.86h-2.12V77.35h2.12v10.61l-0.11,2.98h0.15c0.87-1.4,1.97-2.42,3.3-3.04
c1.33-0.63,2.98-0.94,4.95-0.94c5.29,0,7.93,2.84,7.93,8.51v15.24H263.98z"></path>
<path class="st0" d="M290.31,110.7V95.59c0-2.34-0.49-4.05-1.48-5.11c-0.99-1.06-2.52-1.6-4.59-1.6c-2.79,0-4.83,0.7-6.12,2.11
c-1.29,1.41-1.94,3.69-1.94,6.85v12.86h-2.12V87.4h1.8l0.41,3.19h0.13c1.51-2.43,4.21-3.64,8.08-3.64c5.29,0,7.93,2.84,7.93,8.51
v15.24H290.31z"></path>
<path class="st0" d="M319.67,99.02c0,3.8-0.92,6.77-2.77,8.91c-1.84,2.14-4.39,3.2-7.63,3.2c-2.04,0-3.84-0.49-5.4-1.48
c-1.56-0.99-2.75-2.4-3.58-4.24c-0.83-1.84-1.24-3.97-1.24-6.39c0-3.8,0.92-6.76,2.77-8.89c1.84-2.12,4.37-3.18,7.59-3.18
c3.2,0,5.71,1.08,7.53,3.23C318.76,92.33,319.67,95.28,319.67,99.02z M301.28,99.02c0,3.2,0.7,5.7,2.11,7.49
c1.41,1.79,3.4,2.69,5.97,2.69s4.56-0.9,5.97-2.69c1.41-1.79,2.11-4.29,2.11-7.49c0-3.22-0.71-5.71-2.13-7.48
c-1.42-1.77-3.42-2.66-5.99-2.66c-2.57,0-4.55,0.88-5.95,2.65C301.97,93.3,301.28,95.79,301.28,99.02z"></path>
<path class="st0" d="M328.68,110.7h-2.12V77.35h2.12V110.7z"></path>
<path class="st0" d="M356.19,99.02c0,3.8-0.92,6.77-2.77,8.91c-1.84,2.14-4.39,3.2-7.63,3.2c-2.04,0-3.84-0.49-5.4-1.48
c-1.56-0.99-2.75-2.4-3.58-4.24c-0.83-1.84-1.24-3.97-1.24-6.39c0-3.8,0.92-6.76,2.77-8.89c1.84-2.12,4.37-3.18,7.59-3.18
c3.2,0,5.71,1.08,7.53,3.23C355.28,92.33,356.19,95.28,356.19,99.02z M337.8,99.02c0,3.2,0.7,5.7,2.11,7.49
c1.41,1.79,3.4,2.69,5.97,2.69s4.56-0.9,5.97-2.69c1.41-1.79,2.11-4.29,2.11-7.49c0-3.22-0.71-5.71-2.13-7.48
c-1.42-1.77-3.42-2.66-5.99-2.66c-2.57,0-4.55,0.88-5.95,2.65C338.5,93.3,337.8,95.79,337.8,99.02z"></path>
<path class="st0" d="M381.26,87.4v1.48l-4.82,0.3c1.29,1.6,1.93,3.36,1.93,5.27c0,2.24-0.75,4.06-2.24,5.46
c-1.49,1.39-3.5,2.09-6.01,2.09c-1.06,0-1.8-0.04-2.23-0.13c-0.84,0.44-1.49,0.96-1.93,1.56c-0.44,0.6-0.66,1.24-0.66,1.91
c0,0.74,0.28,1.29,0.85,1.63c0.56,0.34,1.51,0.51,2.84,0.51h4.07c2.53,0,4.47,0.51,5.81,1.53c1.34,1.02,2.01,2.53,2.01,4.53
c0,2.46-1,4.35-2.99,5.69s-4.83,2-8.52,2c-2.93,0-5.2-0.56-6.81-1.69c-1.61-1.13-2.41-2.7-2.41-4.72c0-1.6,0.5-2.93,1.49-3.99
c0.99-1.06,2.34-1.78,4.04-2.17c-0.7-0.3-1.26-0.73-1.68-1.28c-0.42-0.55-0.63-1.18-0.63-1.9c0-1.56,0.99-2.93,2.98-4.12
c-1.36-0.56-2.42-1.43-3.17-2.63c-0.76-1.19-1.14-2.56-1.14-4.1c0-2.33,0.74-4.2,2.22-5.61c1.48-1.41,3.48-2.11,5.99-2.11
c1.53,0,2.71,0.15,3.56,0.45H381.26z M362.4,114.65c0,3.2,2.38,4.8,7.14,4.8c6.12,0,9.17-1.95,9.17-5.85
c0-1.4-0.48-2.42-1.44-3.04c-0.96-0.63-2.51-0.94-4.65-0.94h-3.82C364.54,109.61,362.4,111.29,362.4,114.65z M364.18,94.67
c0,1.8,0.55,3.2,1.64,4.19s2.55,1.49,4.38,1.49c1.94,0,3.43-0.49,4.47-1.48s1.55-2.42,1.55-4.29c0-1.99-0.53-3.48-1.6-4.47
s-2.55-1.49-4.47-1.49c-1.86,0-3.32,0.53-4.38,1.6C364.71,91.29,364.18,92.77,364.18,94.67z"></path>
<path class="st0" d="M386.18,80.93c0-1.37,0.45-2.06,1.35-2.06c0.44,0,0.79,0.18,1.04,0.54c0.25,0.36,0.38,0.86,0.38,1.52
c0,0.64-0.12,1.15-0.38,1.52c-0.25,0.37-0.6,0.56-1.04,0.56C386.63,83.01,386.18,82.32,386.18,80.93z M388.6,110.7h-2.12V87.4
h2.12V110.7z"></path>
<path class="st0" d="M406.26,111.13c-3.39,0-6.03-1.04-7.92-3.13c-1.89-2.09-2.84-5.01-2.84-8.77c0-3.72,0.91-6.69,2.74-8.93
c1.83-2.24,4.29-3.35,7.4-3.35c2.74,0,4.91,0.96,6.49,2.87c1.59,1.92,2.38,4.52,2.38,7.8v1.71h-16.78
c0.03,3.2,0.78,5.65,2.24,7.33s3.56,2.53,6.29,2.53c1.33,0,2.5-0.09,3.5-0.28c1.01-0.19,2.28-0.59,3.83-1.2v1.93
c-1.31,0.57-2.53,0.96-3.64,1.17C408.83,111.03,407.6,111.13,406.26,111.13z M405.64,88.84c-2.24,0-4.04,0.74-5.4,2.22
s-2.15,3.61-2.38,6.4h14.41c0-2.7-0.59-4.81-1.76-6.33S407.71,88.84,405.64,88.84z"></path>
<path class="st0" d="M435.83,104.64c0,2.09-0.79,3.69-2.38,4.81c-1.59,1.12-3.84,1.68-6.75,1.68c-3.12,0-5.59-0.48-7.42-1.44
v-2.29c2.34,1.17,4.82,1.76,7.42,1.76c2.3,0,4.05-0.38,5.24-1.15c1.19-0.76,1.79-1.78,1.79-3.05c0-1.17-0.47-2.16-1.42-2.96
c-0.95-0.8-2.51-1.59-4.68-2.36c-2.33-0.84-3.96-1.57-4.91-2.18c-0.94-0.61-1.65-1.29-2.13-2.06c-0.48-0.76-0.72-1.7-0.72-2.8
c0-1.74,0.73-3.12,2.2-4.14c1.46-1.01,3.51-1.52,6.14-1.52c2.52,0,4.9,0.47,7.16,1.42l-0.79,1.93c-2.29-0.94-4.41-1.42-6.37-1.42
c-1.9,0-3.41,0.31-4.52,0.94c-1.12,0.63-1.67,1.5-1.67,2.62c0,1.21,0.43,2.19,1.3,2.92c0.87,0.73,2.55,1.54,5.07,2.44
c2.1,0.76,3.63,1.44,4.59,2.05c0.96,0.61,1.68,1.3,2.15,2.07C435.59,102.69,435.83,103.6,435.83,104.64z"></path>
</g>
</g>
<g>
<path class="co" d="M86.55,27.52c-1.19-1.26-2.6-2.25-4.23-2.98c-1.63-0.73-3.41-1.1-5.33-1.1c-1.97,0-3.75,0.36-5.36,1.07
s-2.99,1.69-4.14,2.95c-1.15,1.26-2.05,2.71-2.7,4.36c-0.65,1.65-0.97,3.42-0.97,5.3v0.12c0,1.88,0.32,3.66,0.97,5.33
c0.65,1.67,1.57,3.13,2.76,4.39c1.19,1.26,2.59,2.25,4.2,2.98c1.61,0.73,3.4,1.1,5.36,1.1c1.92,0,3.7-0.36,5.33-1.07
c1.63-0.71,3.02-1.69,4.17-2.95c1.15-1.26,2.05-2.71,2.7-4.36c0.65-1.65,0.97-3.42,0.97-5.3v-0.13c0-1.88-0.32-3.66-0.97-5.33
C88.66,30.23,87.74,28.77,86.55,27.52z"></path>
<path class="co" d="M78.12,4.74H37.68c-17.31,0-31.34,14.03-31.34,31.34v1.59c0,17.31,14.03,31.34,31.34,31.34h40.44
c17.31,0,31.34-14.03,31.34-31.34v-1.59C109.46,18.78,95.43,4.74,78.12,4.74z M27.82,42.28c0.63,1.62,1.5,3.05,2.6,4.27
c1.11,1.22,2.45,2.18,4.02,2.9c1.57,0.71,3.29,1.07,5.17,1.07c2.51,0,4.63-0.45,6.37-1.34c0.62-0.32,1.24-0.69,1.86-1.1
c0.12-0.08,0.28-0.03,0.34,0.11c1.05,2.61,2.44,5.06,4.13,7.27c0.08,0.11,0.06,0.26-0.06,0.34c-0.78,0.49-1.59,0.95-2.45,1.34
c-1.44,0.67-3.02,1.18-4.74,1.52c-1.72,0.35-3.64,0.52-5.77,0.52c-3.22,0-6.21-0.57-8.97-1.71c-2.76-1.14-5.14-2.69-7.15-4.66
c-2.01-1.97-3.58-4.3-4.7-6.98c-1.13-2.68-1.69-5.55-1.69-8.59v-0.12c0-3.05,0.56-5.9,1.69-8.56c1.13-2.66,2.7-5,4.7-7.01
c2.01-2.01,4.41-3.6,7.22-4.76c2.8-1.16,5.9-1.74,9.28-1.74c2.05,0,3.92,0.16,5.61,0.49c1.69,0.33,3.23,0.77,4.61,1.34
c0.82,0.34,1.61,0.73,2.36,1.15c0.12,0.07,0.15,0.23,0.07,0.34c-1.78,2.33-3.24,4.91-4.3,7.67c-0.05,0.14-0.21,0.19-0.34,0.11
c-0.69-0.44-1.38-0.83-2.08-1.17c-1.78-0.85-3.78-1.28-5.99-1.28c-1.84,0-3.54,0.35-5.11,1.04c-1.57,0.69-2.92,1.65-4.05,2.86
c-1.13,1.22-2.01,2.63-2.63,4.24c-0.63,1.61-0.94,3.32-0.94,5.15v0.12C26.88,38.92,27.2,40.65,27.82,42.28z M100.38,37.24
c0,3.14-0.59,6.08-1.76,8.82c-1.17,2.74-2.79,5.14-4.86,7.21c-2.07,2.07-4.54,3.7-7.4,4.89c-2.86,1.19-5.99,1.79-9.38,1.79
s-6.5-0.59-9.35-1.79c-2.84-1.19-5.3-2.8-7.37-4.83c-2.07-2.03-3.68-4.41-4.83-7.15c-1.15-2.74-1.72-5.68-1.72-8.81v-0.13
c0-3.13,0.58-6.08,1.76-8.81c1.17-2.74,2.79-5.15,4.86-7.21c2.07-2.07,4.54-3.7,7.4-4.9c2.86-1.19,5.99-1.79,9.38-1.79
s6.5,0.6,9.35,1.79c2.84,1.19,5.3,2.8,7.37,4.83c2.07,2.03,3.68,4.42,4.83,7.15c1.15,2.74,1.73,5.68,1.73,8.82V37.24z"></path>
</g>
<g>
<rect class="st0" x="122.4" y="14.59" width="9.81" height="44.58"></rect>
<polygon class="st0" points="169.84,42.04 148.95,14.59 139.91,14.59 139.91,59.17 149.59,59.17 149.59,30.83 171.18,59.17 179.52,59.17
179.52,14.59 169.84,14.59 		"></polygon>
<polygon class="st0" points="206.59,45.98 194.93,14.59 184.11,14.59 202.13,59.48 210.79,59.48 228.81,14.59 218.24,14.59 		"></polygon>
<polygon class="st0" points="242.5,41.08 263.52,41.08 263.52,32.36 242.5,32.36 242.5,23.31 266.38,23.31 266.38,14.59 232.82,14.59
232.82,59.17 266.7,59.17 266.7,50.45 242.5,50.45 		"></polygon>
<path class="st0" d="M302.9,37.16c-1.22-1.04-2.7-1.93-4.47-2.67c-1.77-0.74-3.78-1.41-6.04-2.01c-1.91-0.51-3.5-0.95-4.76-1.34
c-1.25-0.38-2.24-0.78-2.97-1.21c-0.73-0.42-1.23-0.9-1.5-1.44c-0.28-0.53-0.42-1.16-0.42-1.88V26.5c0-1.1,0.48-2.03,1.43-2.77
c0.96-0.75,2.39-1.11,4.3-1.11c1.91,0,3.82,0.39,5.73,1.18c1.91,0.79,3.86,1.86,5.86,3.22l5.09-7.39
c-2.29-1.82-4.81-3.22-7.55-4.2c-2.74-0.97-5.74-1.46-9.01-1.46c-2.29,0-4.39,0.32-6.29,0.95c-1.9,0.64-3.54,1.55-4.91,2.74
c-1.37,1.19-2.44,2.6-3.2,4.23c-0.76,1.64-1.14,3.47-1.14,5.51v0.13c0,2.21,0.35,4.05,1.05,5.54c0.7,1.49,1.69,2.73,2.97,3.73
c1.28,1,2.83,1.83,4.66,2.51s3.87,1.3,6.13,1.85c1.87,0.47,3.39,0.92,4.57,1.34c1.17,0.42,2.09,0.85,2.74,1.27
c0.66,0.42,1.11,0.88,1.34,1.37c0.23,0.49,0.35,1.05,0.35,1.69v0.13c0,1.32-0.56,2.34-1.69,3.09c-1.12,0.74-2.71,1.11-4.74,1.11
c-2.55,0-4.89-0.49-7.04-1.47c-2.14-0.97-4.23-2.29-6.27-3.95l-5.8,6.94c2.68,2.42,5.65,4.21,8.92,5.38
c3.27,1.17,6.6,1.75,10,1.75c2.42,0,4.63-0.31,6.61-0.92c1.99-0.62,3.7-1.51,5.14-2.67c1.43-1.17,2.55-2.61,3.35-4.33
c0.8-1.72,1.2-3.68,1.2-5.89v-0.12c0-1.95-0.31-3.63-0.93-5.03C305.02,39.43,304.11,38.2,302.9,37.16z"></path>
<polygon class="st0" points="309.63,23.63 323.19,23.63 323.19,59.17 333,59.17 333,23.63 346.56,23.63 346.56,14.59 309.63,14.59 		"></polygon>
<path class="st0" d="M387.66,20.54c-2.1-2.06-4.6-3.69-7.48-4.9c-2.89-1.21-6.05-1.81-9.49-1.81s-6.61,0.61-9.52,1.81
c-2.91,1.21-5.41,2.87-7.51,4.97c-2.1,2.1-3.75,4.54-4.93,7.32c-1.19,2.78-1.78,5.76-1.78,8.95v0.13c0,3.18,0.58,6.17,1.75,8.95
c1.17,2.78,2.8,5.2,4.91,7.26c2.1,2.06,4.59,3.7,7.48,4.9c2.89,1.21,6.05,1.81,9.49,1.81c3.44,0,6.61-0.6,9.52-1.81
c2.91-1.21,5.41-2.87,7.51-4.97c2.1-2.1,3.75-4.55,4.94-7.32c1.19-2.78,1.78-5.76,1.78-8.95v-0.12c0-3.19-0.58-6.17-1.75-8.95
C391.4,25.02,389.77,22.6,387.66,20.54z M384.06,37.01c0,1.91-0.33,3.71-0.99,5.38c-0.66,1.68-1.57,3.15-2.74,4.43
c-1.17,1.27-2.58,2.27-4.24,3c-1.66,0.72-3.46,1.08-5.41,1.08c-2,0-3.81-0.37-5.44-1.11c-1.64-0.75-3.06-1.75-4.27-3.03
c-1.21-1.27-2.15-2.76-2.8-4.46c-0.66-1.7-0.99-3.5-0.99-5.42v-0.12c0-1.91,0.33-3.71,0.99-5.38c0.66-1.67,1.57-3.15,2.74-4.43
c1.17-1.27,2.57-2.27,4.2-2.99s3.45-1.08,5.44-1.08c1.95,0,3.76,0.37,5.41,1.11c1.66,0.74,3.09,1.75,4.3,3.03
c1.21,1.27,2.14,2.76,2.8,4.46c0.66,1.69,0.99,3.5,0.99,5.41V37.01z"></path>
<path class="st0" d="M426.09,43.25c2.85-1.06,5.15-2.73,6.91-5c1.76-2.27,2.64-5.21,2.64-8.82V29.3c0-4.24-1.27-7.64-3.82-10.19
c-3.01-3.02-7.34-4.52-12.99-4.52h-20.38v44.58h9.81V44.9h7.58h0.13l9.55,14.27h11.46L426.09,43.25z M425.71,29.94
c0,1.91-0.65,3.44-1.94,4.59c-1.3,1.15-3.15,1.72-5.57,1.72h-9.94v-12.8H418c2.42,0,4.31,0.53,5.67,1.6
c1.36,1.06,2.04,2.65,2.04,4.77V29.94z"></path>
</g>
</g>
</svg>